# xmcd CD database file
#
# Track frame offsets:
#	150
#	12250
#	27686
#	36659
#	50029
#	62859
#	84973
#	95384
#	114927
#	138201
#	159422
#	174182
#	184594
#	196206
#
# Disc length: 2808 seconds
#
# Revision: 0
# Processed by: cddbd v1.4PL0 Copyright (c) Steve Scherf et al.
# Submitted via: Feurio! 1.63 - http://www.feurio.com
#
DISCID=b30af60e
DTITLE=Various Artist - Oldies
DYEAR=1900
DGENRE=
TTITLE0=Chuck Berry - Johnny be good
TTITLE1=Tom Jones - Dilaila
TTITLE2=Tom Jones - It`s not unusual
TTITLE3=Herman`s Hermits - No milk today
TTITLE4=Percy Sledge - When a man loves a woman
TTITLE5=Pointer sisters - I`m so exited
TTITLE6=Rocky Sharp and the Replays - Ramalam DingDong
TTITLE7=Rod Stweart - Sailing
TTITLE8=Simon and Garfunkle - Boxer
TTITLE9=Status Quo - In the Army
TTITLE10=Bruce Springsteen - Streets of Philadelphia
TTITLE11=The Beach Boys - Barbara Ann
TTITLE12=The Platters - Only You
TTITLE13=Sunny and Cher - I got you babe
EXTD=
EXTT0=
EXTT1=
EXTT2=
EXTT3=
EXTT4=
EXTT5=
EXTT6=
EXTT7=
EXTT8=
EXTT9=
EXTT10=
EXTT11=
EXTT12=
EXTT13=
PLAYORDER=
